ISO-10303-21;
HEADER;
FILE_DESCRIPTION(('FreeCAD Model'),'2;1');
FILE_NAME('Open CASCADE Shape Model','2026-08-18T19:41:31',('Author'),(
    ''),'Open CASCADE STEP processor 7.8','FreeCAD','Unknown');
FILE_SCHEMA(('AUTOMOTIVE_DESIGN { 1 0 10303 214 1 1 1 1 }'));
ENDSEC;
DATA;
#1 = APPLICATION_PROTOCOL_DEFINITION('international standard',
  'automotive_design',2000,#2);
#2 = APPLICATION_CONTEXT(
  'core data for automotive mechanical design processes');
#3 = SHAPE_DEFINITION_REPRESENTATION(#4,#10);
#4 = PRODUCT_DEFINITION_SHAPE('','',#5);
#5 = PRODUCT_DEFINITION('design','',#6,#9);
#6 = PRODUCT_DEFINITION_FORMATION('','',#7);
#7 = PRODUCT('EnclosureLid','EnclosureLid','',(#8));
#8 = PRODUCT_CONTEXT('',#2,'mechanical');
#9 = PRODUCT_DEFINITION_CONTEXT('part definition',#2,'design');
#10 = ADVANCED_BREP_SHAPE_REPRESENTATION('',(#11,#15),#1496);
#11 = AXIS2_PLACEMENT_3D('',#12,#13,#14);
#12 = CARTESIAN_POINT('',(0.,0.,0.));
#13 = DIRECTION('',(0.,0.,1.));
#14 = DIRECTION('',(1.,0.,-0.));
#15 = MANIFOLD_SOLID_BREP('',#16);
#16 = CLOSED_SHELL('',(#17,#291,#322,#346,#370,#387,#418,#442,#466,#483,
    #534,#558,#591,#608,#659,#683,#716,#733,#784,#808,#841,#858,#898,
    #922,#966,#983,#1014,#1038,#1062,#1079,#1091,#1115,#1132,#1157,#1169
    ,#1193,#1210,#1235,#1247,#1271,#1288,#1313,#1325,#1349,#1366,#1378,
    #1403,#1426,#1435,#1444,#1453,#1462,#1487));
#17 = ADVANCED_FACE('',(#18,#52,#86,#136,#186,#236),#286,.F.);
#18 = FACE_BOUND('',#19,.F.);
#19 = EDGE_LOOP('',(#20,#30,#38,#46));
#20 = ORIENTED_EDGE('',*,*,#21,.T.);
#21 = EDGE_CURVE('',#22,#24,#26,.T.);
#22 = VERTEX_POINT('',#23);
#23 = CARTESIAN_POINT('',(162.33529179301,1.001531185515,60.));
#24 = VERTEX_POINT('',#25);
#25 = CARTESIAN_POINT('',(146.53529179301,1.001531185515,60.));
#26 = LINE('',#27,#28);
#27 = CARTESIAN_POINT('',(158.43529179301,1.001531185515,60.));
#28 = VECTOR('',#29,1.);
#29 = DIRECTION('',(-1.,0.,0.));
#30 = ORIENTED_EDGE('',*,*,#31,.T.);
#31 = EDGE_CURVE('',#24,#32,#34,.T.);
#32 = VERTEX_POINT('',#33);
#33 = CARTESIAN_POINT('',(146.53529179301,16.801531185515,60.));
#34 = LINE('',#35,#36);
#35 = CARTESIAN_POINT('',(146.53529179301,4.901531185515,60.));
#36 = VECTOR('',#37,1.);
#37 = DIRECTION('',(0.,1.,0.));
#38 = ORIENTED_EDGE('',*,*,#39,.T.);
#39 = EDGE_CURVE('',#32,#40,#42,.T.);
#40 = VERTEX_POINT('',#41);
#41 = CARTESIAN_POINT('',(162.33529179301,16.801531185515,60.));
#42 = LINE('',#43,#44);
#43 = CARTESIAN_POINT('',(150.43529179301,16.801531185515,60.));
#44 = VECTOR('',#45,1.);
#45 = DIRECTION('',(1.,0.,0.));
#46 = ORIENTED_EDGE('',*,*,#47,.T.);
#47 = EDGE_CURVE('',#40,#22,#48,.T.);
#48 = LINE('',#49,#50);
#49 = CARTESIAN_POINT('',(162.33529179301,12.901531185515,60.));
#50 = VECTOR('',#51,1.);
#51 = DIRECTION('',(0.,-1.,0.));
#52 = FACE_BOUND('',#53,.F.);
#53 = EDGE_LOOP('',(#54,#64,#72,#80));
#54 = ORIENTED_EDGE('',*,*,#55,.F.);
#55 = EDGE_CURVE('',#56,#58,#60,.T.);
#56 = VERTEX_POINT('',#57);
#57 = CARTESIAN_POINT('',(77.882385678119,105.939422,60.));
#58 = VERTEX_POINT('',#59);
#59 = CARTESIAN_POINT('',(187.88238567811,105.939422,60.));
#60 = LINE('',#61,#62);
#61 = CARTESIAN_POINT('',(77.882385678119,105.939422,60.));
#62 = VECTOR('',#63,1.);
#63 = DIRECTION('',(1.,0.,0.));
#64 = ORIENTED_EDGE('',*,*,#65,.T.);
#65 = EDGE_CURVE('',#56,#66,#68,.T.);
#66 = VERTEX_POINT('',#67);
#67 = CARTESIAN_POINT('',(77.882385678119,-10.060578,60.));
#68 = LINE('',#69,#70);
#69 = CARTESIAN_POINT('',(77.882385678119,105.939422,60.));
#70 = VECTOR('',#71,1.);
#71 = DIRECTION('',(0.,-1.,0.));
#72 = ORIENTED_EDGE('',*,*,#73,.T.);
#73 = EDGE_CURVE('',#66,#74,#76,.T.);
#74 = VERTEX_POINT('',#75);
#75 = CARTESIAN_POINT('',(187.88238567811,-10.060578,60.));
#76 = LINE('',#77,#78);
#77 = CARTESIAN_POINT('',(77.882385678119,-10.060578,60.));
#78 = VECTOR('',#79,1.);
#79 = DIRECTION('',(1.,0.,0.));
#80 = ORIENTED_EDGE('',*,*,#81,.T.);
#81 = EDGE_CURVE('',#74,#58,#82,.T.);
#82 = LINE('',#83,#84);
#83 = CARTESIAN_POINT('',(187.88238567811,-10.060578,60.));
#84 = VECTOR('',#85,1.);
#85 = DIRECTION('',(0.,1.,0.));
#86 = FACE_BOUND('',#87,.F.);
#87 = EDGE_LOOP('',(#88,#98,#106,#114,#122,#130));
#88 = ORIENTED_EDGE('',*,*,#89,.F.);
#89 = EDGE_CURVE('',#90,#92,#94,.T.);
#90 = VERTEX_POINT('',#91);
#91 = CARTESIAN_POINT('',(88.082385678119,-7.860578,60.));
#92 = VERTEX_POINT('',#93);
#93 = CARTESIAN_POINT('',(95.982385678119,-7.860578,60.));
#94 = LINE('',#95,#96);
#95 = CARTESIAN_POINT('',(110.48238567811,-7.860578,60.));
#96 = VECTOR('',#97,1.);
#97 = DIRECTION('',(1.,0.,0.));
#98 = ORIENTED_EDGE('',*,*,#99,.T.);
#99 = EDGE_CURVE('',#90,#100,#102,.T.);
#100 = VERTEX_POINT('',#101);
#101 = CARTESIAN_POINT('',(80.082385678119,-7.860578,60.));
#102 = LINE('',#103,#104);
#103 = CARTESIAN_POINT('',(88.082385678119,-7.860578,60.));
#104 = VECTOR('',#105,1.);
#105 = DIRECTION('',(-1.,0.,0.));
#106 = ORIENTED_EDGE('',*,*,#107,.T.);
#107 = EDGE_CURVE('',#100,#108,#110,.T.);
#108 = VERTEX_POINT('',#109);
#109 = CARTESIAN_POINT('',(80.082385678119,-2.860578,60.));
#110 = LINE('',#111,#112);
#111 = CARTESIAN_POINT('',(80.082385678119,-7.860578,60.));
#112 = VECTOR('',#113,1.);
#113 = DIRECTION('',(0.,1.,0.));
#114 = ORIENTED_EDGE('',*,*,#115,.T.);
#115 = EDGE_CURVE('',#108,#116,#118,.T.);
#116 = VERTEX_POINT('',#117);
#117 = CARTESIAN_POINT('',(80.082385678119,5.039422,60.));
#118 = LINE('',#119,#120);
#119 = CARTESIAN_POINT('',(80.082385678119,20.039422,60.));
#120 = VECTOR('',#121,1.);
#121 = DIRECTION('',(0.,1.,0.));
#122 = ORIENTED_EDGE('',*,*,#123,.T.);
#123 = EDGE_CURVE('',#116,#124,#126,.T.);
#124 = VERTEX_POINT('',#125);
#125 = CARTESIAN_POINT('',(95.982385678119,5.039422,60.));
#126 = LINE('',#127,#128);
#127 = CARTESIAN_POINT('',(80.082385678119,5.039422,60.));
#128 = VECTOR('',#129,1.);
#129 = DIRECTION('',(1.,0.,0.));
#130 = ORIENTED_EDGE('',*,*,#131,.T.);
#131 = EDGE_CURVE('',#124,#92,#132,.T.);
#132 = LINE('',#133,#134);
#133 = CARTESIAN_POINT('',(95.982385678119,-2.860578,60.));
#134 = VECTOR('',#135,1.);
#135 = DIRECTION('',(0.,-1.,0.));
#136 = FACE_BOUND('',#137,.F.);
#137 = EDGE_LOOP('',(#138,#148,#156,#164,#172,#180));
#138 = ORIENTED_EDGE('',*,*,#139,.T.);
#139 = EDGE_CURVE('',#140,#142,#144,.T.);
#140 = VERTEX_POINT('',#141);
#141 = CARTESIAN_POINT('',(177.68238567811,-7.860578,60.));
#142 = VERTEX_POINT('',#143);
#143 = CARTESIAN_POINT('',(169.78238567811,-7.860578,60.));
#144 = LINE('',#145,#146);
#145 = CARTESIAN_POINT('',(159.28238567811,-7.860578,60.));
#146 = VECTOR('',#147,1.);
#147 = DIRECTION('',(-1.,0.,0.));
#148 = ORIENTED_EDGE('',*,*,#149,.T.);
#149 = EDGE_CURVE('',#142,#150,#152,.T.);
#150 = VERTEX_POINT('',#151);
#151 = CARTESIAN_POINT('',(169.78238567811,5.039422,60.));
#152 = LINE('',#153,#154);
#153 = CARTESIAN_POINT('',(169.78238567811,-7.860578,60.));
#154 = VECTOR('',#155,1.);
#155 = DIRECTION('',(0.,1.,0.));
#156 = ORIENTED_EDGE('',*,*,#157,.T.);
#157 = EDGE_CURVE('',#150,#158,#160,.T.);
#158 = VERTEX_POINT('',#159);
#159 = CARTESIAN_POINT('',(185.68238567811,5.039422,60.));
#160 = LINE('',#161,#162);
#161 = CARTESIAN_POINT('',(177.68238567811,5.039422,60.));
#162 = VECTOR('',#163,1.);
#163 = DIRECTION('',(1.,0.,0.));
#164 = ORIENTED_EDGE('',*,*,#165,.F.);
#165 = EDGE_CURVE('',#166,#158,#168,.T.);
#166 = VERTEX_POINT('',#167);
#167 = CARTESIAN_POINT('',(185.68238567811,-2.860578,60.));
#168 = LINE('',#169,#170);
#169 = CARTESIAN_POINT('',(185.68238567811,22.539422,60.));
#170 = VECTOR('',#171,1.);
#171 = DIRECTION('',(0.,1.,0.));
#172 = ORIENTED_EDGE('',*,*,#173,.T.);
#173 = EDGE_CURVE('',#166,#174,#176,.T.);
#174 = VERTEX_POINT('',#175);
#175 = CARTESIAN_POINT('',(185.68238567811,-7.860578,60.));
#176 = LINE('',#177,#178);
#177 = CARTESIAN_POINT('',(185.68238567811,-2.860578,60.));
#178 = VECTOR('',#179,1.);
#179 = DIRECTION('',(0.,-1.,0.));
#180 = ORIENTED_EDGE('',*,*,#181,.T.);
#181 = EDGE_CURVE('',#174,#140,#182,.T.);
#182 = LINE('',#183,#184);
#183 = CARTESIAN_POINT('',(185.68238567811,-7.860578,60.));
#184 = VECTOR('',#185,1.);
#185 = DIRECTION('',(-1.,0.,0.));
#186 = FACE_BOUND('',#187,.F.);
#187 = EDGE_LOOP('',(#188,#198,#206,#214,#222,#230));
#188 = ORIENTED_EDGE('',*,*,#189,.T.);
#189 = EDGE_CURVE('',#190,#192,#194,.T.);
#190 = VERTEX_POINT('',#191);
#191 = CARTESIAN_POINT('',(88.082385678119,102.739422,60.));
#192 = VERTEX_POINT('',#193);
#193 = CARTESIAN_POINT('',(95.982385678119,102.739422,60.));
#194 = LINE('',#195,#196);
#195 = CARTESIAN_POINT('',(106.48238567811,102.739422,60.));
#196 = VECTOR('',#197,1.);
#197 = DIRECTION('',(1.,0.,0.));
#198 = ORIENTED_EDGE('',*,*,#199,.T.);
#199 = EDGE_CURVE('',#192,#200,#202,.T.);
#200 = VERTEX_POINT('',#201);
#201 = CARTESIAN_POINT('',(95.982385678119,89.839422,60.));
#202 = LINE('',#203,#204);
#203 = CARTESIAN_POINT('',(95.982385678119,102.739422,60.));
#204 = VECTOR('',#205,1.);
#205 = DIRECTION('',(0.,-1.,0.));
#206 = ORIENTED_EDGE('',*,*,#207,.T.);
#207 = EDGE_CURVE('',#200,#208,#210,.T.);
#208 = VERTEX_POINT('',#209);
#209 = CARTESIAN_POINT('',(80.082385678119,89.839422,60.));
#210 = LINE('',#211,#212);
#211 = CARTESIAN_POINT('',(88.082385678119,89.839422,60.));
#212 = VECTOR('',#213,1.);
#213 = DIRECTION('',(-1.,0.,0.));
#214 = ORIENTED_EDGE('',*,*,#215,.F.);
#215 = EDGE_CURVE('',#216,#208,#218,.T.);
#216 = VERTEX_POINT('',#217);
#217 = CARTESIAN_POINT('',(80.082385678119,97.739422,60.));
#218 = LINE('',#219,#220);
#219 = CARTESIAN_POINT('',(80.082385678119,72.839422,60.));
#220 = VECTOR('',#221,1.);
#221 = DIRECTION('',(-0.,-1.,-0.));
#222 = ORIENTED_EDGE('',*,*,#223,.T.);
#223 = EDGE_CURVE('',#216,#224,#226,.T.);
#224 = VERTEX_POINT('',#225);
#225 = CARTESIAN_POINT('',(80.082385678119,102.739422,60.));
#226 = LINE('',#227,#228);
#227 = CARTESIAN_POINT('',(80.082385678119,97.739422,60.));
#228 = VECTOR('',#229,1.);
#229 = DIRECTION('',(0.,1.,0.));
#230 = ORIENTED_EDGE('',*,*,#231,.T.);
#231 = EDGE_CURVE('',#224,#190,#232,.T.);
#232 = LINE('',#233,#234);
#233 = CARTESIAN_POINT('',(80.082385678119,102.739422,60.));
#234 = VECTOR('',#235,1.);
#235 = DIRECTION('',(1.,0.,0.));
#236 = FACE_BOUND('',#237,.F.);
#237 = EDGE_LOOP('',(#238,#248,#256,#264,#272,#280));
#238 = ORIENTED_EDGE('',*,*,#239,.T.);
#239 = EDGE_CURVE('',#240,#242,#244,.T.);
#240 = VERTEX_POINT('',#241);
#241 = CARTESIAN_POINT('',(185.68238567811,97.739422,60.));
#242 = VERTEX_POINT('',#243);
#243 = CARTESIAN_POINT('',(185.68238567811,89.839422,60.));
#244 = LINE('',#245,#246);
#245 = CARTESIAN_POINT('',(185.68238567811,75.339422,60.));
#246 = VECTOR('',#247,1.);
#247 = DIRECTION('',(0.,-1.,0.));
#248 = ORIENTED_EDGE('',*,*,#249,.T.);
#249 = EDGE_CURVE('',#242,#250,#252,.T.);
#250 = VERTEX_POINT('',#251);
#251 = CARTESIAN_POINT('',(169.78238567811,89.839422,60.));
#252 = LINE('',#253,#254);
#253 = CARTESIAN_POINT('',(185.68238567811,89.839422,60.));
#254 = VECTOR('',#255,1.);
#255 = DIRECTION('',(-1.,0.,0.));
#256 = ORIENTED_EDGE('',*,*,#257,.T.);
#257 = EDGE_CURVE('',#250,#258,#260,.T.);
#258 = VERTEX_POINT('',#259);
#259 = CARTESIAN_POINT('',(169.78238567811,102.739422,60.));
#260 = LINE('',#261,#262);
#261 = CARTESIAN_POINT('',(169.78238567811,97.739422,60.));
#262 = VECTOR('',#263,1.);
#263 = DIRECTION('',(0.,1.,0.));
#264 = ORIENTED_EDGE('',*,*,#265,.F.);
#265 = EDGE_CURVE('',#266,#258,#268,.T.);
#266 = VERTEX_POINT('',#267);
#267 = CARTESIAN_POINT('',(177.68238567811,102.739422,60.));
#268 = LINE('',#269,#270);
#269 = CARTESIAN_POINT('',(155.28238567811,102.739422,60.));
#270 = VECTOR('',#271,1.);
#271 = DIRECTION('',(-1.,0.,0.));
#272 = ORIENTED_EDGE('',*,*,#273,.T.);
#273 = EDGE_CURVE('',#266,#274,#276,.T.);
#274 = VERTEX_POINT('',#275);
#275 = CARTESIAN_POINT('',(185.68238567811,102.739422,60.));
#276 = LINE('',#277,#278);
#277 = CARTESIAN_POINT('',(177.68238567811,102.739422,60.));
#278 = VECTOR('',#279,1.);
#279 = DIRECTION('',(1.,0.,0.));
#280 = ORIENTED_EDGE('',*,*,#281,.T.);
#281 = EDGE_CURVE('',#274,#240,#282,.T.);
#282 = LINE('',#283,#284);
#283 = CARTESIAN_POINT('',(185.68238567811,102.739422,60.));
#284 = VECTOR('',#285,1.);
#285 = DIRECTION('',(0.,-1.,0.));
#286 = PLANE('',#287);
#287 = AXIS2_PLACEMENT_3D('',#288,#289,#290);
#288 = CARTESIAN_POINT('',(132.88238567811,47.939422,60.));
#289 = DIRECTION('',(0.,0.,1.));
#290 = DIRECTION('',(1.,0.,0.));
#291 = ADVANCED_FACE('',(#292),#317,.F.);
#292 = FACE_BOUND('',#293,.T.);
#293 = EDGE_LOOP('',(#294,#302,#303,#311));
#294 = ORIENTED_EDGE('',*,*,#295,.F.);
#295 = EDGE_CURVE('',#22,#296,#298,.T.);
#296 = VERTEX_POINT('',#297);
#297 = CARTESIAN_POINT('',(158.43529179301,4.901531185515,56.1));
#298 = LINE('',#299,#300);
#299 = CARTESIAN_POINT('',(158.40195845967,4.934864518849,
    56.066666666667));
#300 = VECTOR('',#301,1.);
#301 = DIRECTION('',(-0.57735026919,0.57735026919,-0.57735026919));
#302 = ORIENTED_EDGE('',*,*,#21,.T.);
#303 = ORIENTED_EDGE('',*,*,#304,.T.);
#304 = EDGE_CURVE('',#24,#305,#307,.T.);
#305 = VERTEX_POINT('',#306);
#306 = CARTESIAN_POINT('',(150.43529179301,4.901531185515,56.1));
#307 = LINE('',#308,#309);
#308 = CARTESIAN_POINT('',(150.46862512634,4.934864518849,
    56.066666666667));
#309 = VECTOR('',#310,1.);
#310 = DIRECTION('',(0.57735026919,0.57735026919,-0.57735026919));
#311 = ORIENTED_EDGE('',*,*,#312,.F.);
#312 = EDGE_CURVE('',#296,#305,#313,.T.);
#313 = LINE('',#314,#315);
#314 = CARTESIAN_POINT('',(158.43529179301,4.901531185515,56.1));
#315 = VECTOR('',#316,1.);
#316 = DIRECTION('',(-1.,0.,0.));
#317 = PLANE('',#318);
#318 = AXIS2_PLACEMENT_3D('',#319,#320,#321);
#319 = CARTESIAN_POINT('',(158.43529179301,2.951531185515,58.05));
#320 = DIRECTION('',(0.,0.707106781187,0.707106781187));
#321 = DIRECTION('',(1.,-0.,-0.));
#322 = ADVANCED_FACE('',(#323),#341,.F.);
#323 = FACE_BOUND('',#324,.T.);
#324 = EDGE_LOOP('',(#325,#333,#334,#335));
#325 = ORIENTED_EDGE('',*,*,#326,.F.);
#326 = EDGE_CURVE('',#40,#327,#329,.T.);
#327 = VERTEX_POINT('',#328);
#328 = CARTESIAN_POINT('',(158.43529179301,12.901531185515,56.1));
#329 = LINE('',#330,#331);
#330 = CARTESIAN_POINT('',(158.40195845967,12.868197852182,
    56.066666666667));
#331 = VECTOR('',#332,1.);
#332 = DIRECTION('',(-0.57735026919,-0.57735026919,-0.57735026919));
#333 = ORIENTED_EDGE('',*,*,#47,.T.);
#334 = ORIENTED_EDGE('',*,*,#295,.T.);
#335 = ORIENTED_EDGE('',*,*,#336,.F.);
#336 = EDGE_CURVE('',#327,#296,#337,.T.);
#337 = LINE('',#338,#339);
#338 = CARTESIAN_POINT('',(158.43529179301,12.901531185515,56.1));
#339 = VECTOR('',#340,1.);
#340 = DIRECTION('',(0.,-1.,0.));
#341 = PLANE('',#342);
#342 = AXIS2_PLACEMENT_3D('',#343,#344,#345);
#343 = CARTESIAN_POINT('',(160.38529179301,12.901531185515,58.05));
#344 = DIRECTION('',(-0.707106781187,3.E-17,0.707106781187));
#345 = DIRECTION('',(2.12132034356E-17,1.,-2.12132034356E-17));
#346 = ADVANCED_FACE('',(#347),#365,.F.);
#347 = FACE_BOUND('',#348,.T.);
#348 = EDGE_LOOP('',(#349,#350,#351,#359));
#349 = ORIENTED_EDGE('',*,*,#304,.F.);
#350 = ORIENTED_EDGE('',*,*,#31,.T.);
#351 = ORIENTED_EDGE('',*,*,#352,.T.);
#352 = EDGE_CURVE('',#32,#353,#355,.T.);
#353 = VERTEX_POINT('',#354);
#354 = CARTESIAN_POINT('',(150.43529179301,12.901531185515,56.1));
#355 = LINE('',#356,#357);
#356 = CARTESIAN_POINT('',(150.46862512634,12.868197852182,
    56.066666666667));
#357 = VECTOR('',#358,1.);
#358 = DIRECTION('',(0.57735026919,-0.57735026919,-0.57735026919));
#359 = ORIENTED_EDGE('',*,*,#360,.F.);
#360 = EDGE_CURVE('',#305,#353,#361,.T.);
#361 = LINE('',#362,#363);
#362 = CARTESIAN_POINT('',(150.43529179301,4.901531185515,56.1));
#363 = VECTOR('',#364,1.);
#364 = DIRECTION('',(0.,1.,0.));
#365 = PLANE('',#366);
#366 = AXIS2_PLACEMENT_3D('',#367,#368,#369);
#367 = CARTESIAN_POINT('',(148.48529179301,4.901531185515,58.05));
#368 = DIRECTION('',(0.707106781187,-3.E-17,0.707106781187));
#369 = DIRECTION('',(-2.12132034356E-17,-1.,-2.12132034356E-17));
#370 = ADVANCED_FACE('',(#371),#382,.F.);
#371 = FACE_BOUND('',#372,.T.);
#372 = EDGE_LOOP('',(#373,#374,#375,#376));
#373 = ORIENTED_EDGE('',*,*,#352,.F.);
#374 = ORIENTED_EDGE('',*,*,#39,.T.);
#375 = ORIENTED_EDGE('',*,*,#326,.T.);
#376 = ORIENTED_EDGE('',*,*,#377,.F.);
#377 = EDGE_CURVE('',#353,#327,#378,.T.);
#378 = LINE('',#379,#380);
#379 = CARTESIAN_POINT('',(150.43529179301,12.901531185515,56.1));
#380 = VECTOR('',#381,1.);
#381 = DIRECTION('',(1.,0.,0.));
#382 = PLANE('',#383);
#383 = AXIS2_PLACEMENT_3D('',#384,#385,#386);
#384 = CARTESIAN_POINT('',(150.43529179301,14.851531185515,58.05));
#385 = DIRECTION('',(0.,-0.707106781187,0.707106781187));
#386 = DIRECTION('',(-1.,-0.,-0.));
#387 = ADVANCED_FACE('',(#388),#413,.T.);
#388 = FACE_BOUND('',#389,.T.);
#389 = EDGE_LOOP('',(#390,#398,#406,#412));
#390 = ORIENTED_EDGE('',*,*,#391,.T.);
#391 = EDGE_CURVE('',#56,#392,#394,.T.);
#392 = VERTEX_POINT('',#393);
#393 = CARTESIAN_POINT('',(77.882385678119,105.939422,62.));
#394 = LINE('',#395,#396);
#395 = CARTESIAN_POINT('',(77.882385678119,105.939422,60.));
#396 = VECTOR('',#397,1.);
#397 = DIRECTION('',(0.,0.,1.));
#398 = ORIENTED_EDGE('',*,*,#399,.T.);
#399 = EDGE_CURVE('',#392,#400,#402,.T.);
#400 = VERTEX_POINT('',#401);
#401 = CARTESIAN_POINT('',(187.88238567811,105.939422,62.));
#402 = LINE('',#403,#404);
#403 = CARTESIAN_POINT('',(77.882385678119,105.939422,62.));
#404 = VECTOR('',#405,1.);
#405 = DIRECTION('',(1.,0.,0.));
#406 = ORIENTED_EDGE('',*,*,#407,.F.);
#407 = EDGE_CURVE('',#58,#400,#408,.T.);
#408 = LINE('',#409,#410);
#409 = CARTESIAN_POINT('',(187.88238567811,105.939422,60.));
#410 = VECTOR('',#411,1.);
#411 = DIRECTION('',(0.,0.,1.));
#412 = ORIENTED_EDGE('',*,*,#55,.F.);
#413 = PLANE('',#414);
#414 = AXIS2_PLACEMENT_3D('',#415,#416,#417);
#415 = CARTESIAN_POINT('',(77.882385678119,105.939422,60.));
#416 = DIRECTION('',(0.,1.,0.));
#417 = DIRECTION('',(1.,0.,0.));
#418 = ADVANCED_FACE('',(#419),#437,.F.);
#419 = FACE_BOUND('',#420,.F.);
#420 = EDGE_LOOP('',(#421,#422,#430,#436));
#421 = ORIENTED_EDGE('',*,*,#391,.T.);
#422 = ORIENTED_EDGE('',*,*,#423,.T.);
#423 = EDGE_CURVE('',#392,#424,#426,.T.);
#424 = VERTEX_POINT('',#425);
#425 = CARTESIAN_POINT('',(77.882385678119,-10.060578,62.));
#426 = LINE('',#427,#428);
#427 = CARTESIAN_POINT('',(77.882385678119,105.939422,62.));
#428 = VECTOR('',#429,1.);
#429 = DIRECTION('',(0.,-1.,0.));
#430 = ORIENTED_EDGE('',*,*,#431,.F.);
#431 = EDGE_CURVE('',#66,#424,#432,.T.);
#432 = LINE('',#433,#434);
#433 = CARTESIAN_POINT('',(77.882385678119,-10.060578,60.));
#434 = VECTOR('',#435,1.);
#435 = DIRECTION('',(0.,0.,1.));
#436 = ORIENTED_EDGE('',*,*,#65,.F.);
#437 = PLANE('',#438);
#438 = AXIS2_PLACEMENT_3D('',#439,#440,#441);
#439 = CARTESIAN_POINT('',(77.882385678119,105.939422,60.));
#440 = DIRECTION('',(1.,0.,0.));
#441 = DIRECTION('',(0.,-1.,0.));
#442 = ADVANCED_FACE('',(#443),#461,.F.);
#443 = FACE_BOUND('',#444,.F.);
#444 = EDGE_LOOP('',(#445,#453,#459,#460));
#445 = ORIENTED_EDGE('',*,*,#446,.T.);
#446 = EDGE_CURVE('',#74,#447,#449,.T.);
#447 = VERTEX_POINT('',#448);
#448 = CARTESIAN_POINT('',(187.88238567811,-10.060578,62.));
#449 = LINE('',#450,#451);
#450 = CARTESIAN_POINT('',(187.88238567811,-10.060578,60.));
#451 = VECTOR('',#452,1.);
#452 = DIRECTION('',(0.,0.,1.));
#453 = ORIENTED_EDGE('',*,*,#454,.T.);
#454 = EDGE_CURVE('',#447,#400,#455,.T.);
#455 = LINE('',#456,#457);
#456 = CARTESIAN_POINT('',(187.88238567811,-10.060578,62.));
#457 = VECTOR('',#458,1.);
#458 = DIRECTION('',(0.,1.,0.));
#459 = ORIENTED_EDGE('',*,*,#407,.F.);
#460 = ORIENTED_EDGE('',*,*,#81,.F.);
#461 = PLANE('',#462);
#462 = AXIS2_PLACEMENT_3D('',#463,#464,#465);
#463 = CARTESIAN_POINT('',(187.88238567811,-10.060578,60.));
#464 = DIRECTION('',(-1.,0.,0.));
#465 = DIRECTION('',(0.,1.,0.));
#466 = ADVANCED_FACE('',(#467),#478,.F.);
#467 = FACE_BOUND('',#468,.F.);
#468 = EDGE_LOOP('',(#469,#470,#476,#477));
#469 = ORIENTED_EDGE('',*,*,#431,.T.);
#470 = ORIENTED_EDGE('',*,*,#471,.T.);
#471 = EDGE_CURVE('',#424,#447,#472,.T.);
#472 = LINE('',#473,#474);
#473 = CARTESIAN_POINT('',(77.882385678119,-10.060578,62.));
#474 = VECTOR('',#475,1.);
#475 = DIRECTION('',(1.,0.,0.));
#476 = ORIENTED_EDGE('',*,*,#446,.F.);
#477 = ORIENTED_EDGE('',*,*,#73,.F.);
#478 = PLANE('',#479);
#479 = AXIS2_PLACEMENT_3D('',#480,#481,#482);
#480 = CARTESIAN_POINT('',(77.882385678119,-10.060578,60.));
#481 = DIRECTION('',(0.,1.,0.));
#482 = DIRECTION('',(1.,0.,0.));
#483 = ADVANCED_FACE('',(#484,#518),#529,.F.);
#484 = FACE_BOUND('',#485,.F.);
#485 = EDGE_LOOP('',(#486,#496,#504,#510,#511,#512));
#486 = ORIENTED_EDGE('',*,*,#487,.T.);
#487 = EDGE_CURVE('',#488,#490,#492,.T.);
#488 = VERTEX_POINT('',#489);
#489 = CARTESIAN_POINT('',(88.082385678119,-7.860578,52.1));
#490 = VERTEX_POINT('',#491);
#491 = CARTESIAN_POINT('',(88.082385678119,-7.860578,52.));
#492 = LINE('',#493,#494);
#493 = CARTESIAN_POINT('',(88.082385678119,-7.860578,60.));
#494 = VECTOR('',#495,1.);
#495 = DIRECTION('',(0.,0.,-1.));
#496 = ORIENTED_EDGE('',*,*,#497,.T.);
#497 = EDGE_CURVE('',#490,#498,#500,.T.);
#498 = VERTEX_POINT('',#499);
#499 = CARTESIAN_POINT('',(80.082385678119,-7.860578,52.));
#500 = LINE('',#501,#502);
#501 = CARTESIAN_POINT('',(88.082385678119,-7.860578,52.));
#502 = VECTOR('',#503,1.);
#503 = DIRECTION('',(-1.,0.,0.));
#504 = ORIENTED_EDGE('',*,*,#505,.F.);
#505 = EDGE_CURVE('',#100,#498,#506,.T.);
#506 = LINE('',#507,#508);
#507 = CARTESIAN_POINT('',(80.082385678119,-7.860578,60.));
#508 = VECTOR('',#509,1.);
#509 = DIRECTION('',(0.,0.,-1.));
#510 = ORIENTED_EDGE('',*,*,#99,.F.);
#511 = ORIENTED_EDGE('',*,*,#89,.T.);
#512 = ORIENTED_EDGE('',*,*,#513,.T.);
#513 = EDGE_CURVE('',#92,#488,#514,.T.);
#514 = LINE('',#515,#516);
#515 = CARTESIAN_POINT('',(92.032385678119,-7.860578,56.05));
#516 = VECTOR('',#517,1.);
#517 = DIRECTION('',(-0.707106781187,0.,-0.707106781187));
#518 = FACE_BOUND('',#519,.F.);
#519 = EDGE_LOOP('',(#520));
#520 = ORIENTED_EDGE('',*,*,#521,.T.);
#521 = EDGE_CURVE('',#522,#522,#524,.T.);
#522 = VERTEX_POINT('',#523);
#523 = CARTESIAN_POINT('',(86.432385678119,-7.860578,56.));
#524 = CIRCLE('',#525,2.35);
#525 = AXIS2_PLACEMENT_3D('',#526,#527,#528);
#526 = CARTESIAN_POINT('',(84.082385678119,-7.860578,56.));
#527 = DIRECTION('',(0.,-1.,0.));
#528 = DIRECTION('',(1.,0.,0.));
#529 = PLANE('',#530);
#530 = AXIS2_PLACEMENT_3D('',#531,#532,#533);
#531 = CARTESIAN_POINT('',(88.082385678119,-7.860578,60.));
#532 = DIRECTION('',(0.,1.,0.));
#533 = DIRECTION('',(-1.,0.,0.));
#534 = ADVANCED_FACE('',(#535),#553,.F.);
#535 = FACE_BOUND('',#536,.T.);
#536 = EDGE_LOOP('',(#537,#545,#546,#547));
#537 = ORIENTED_EDGE('',*,*,#538,.F.);
#538 = EDGE_CURVE('',#124,#539,#541,.T.);
#539 = VERTEX_POINT('',#540);
#540 = CARTESIAN_POINT('',(88.082385678119,-2.860578,52.1));
#541 = LINE('',#542,#543);
#542 = CARTESIAN_POINT('',(89.382385678119,-1.560578,53.4));
#543 = VECTOR('',#544,1.);
#544 = DIRECTION('',(-0.57735026919,-0.57735026919,-0.57735026919));
#545 = ORIENTED_EDGE('',*,*,#131,.T.);
#546 = ORIENTED_EDGE('',*,*,#513,.T.);
#547 = ORIENTED_EDGE('',*,*,#548,.F.);
#548 = EDGE_CURVE('',#539,#488,#549,.T.);
#549 = LINE('',#550,#551);
#550 = CARTESIAN_POINT('',(88.082385678119,-2.860578,52.1));
#551 = VECTOR('',#552,1.);
#552 = DIRECTION('',(0.,-1.,0.));
#553 = PLANE('',#554);
#554 = AXIS2_PLACEMENT_3D('',#555,#556,#557);
#555 = CARTESIAN_POINT('',(92.032385678119,-2.860578,56.05));
#556 = DIRECTION('',(-0.707106781187,0.,0.707106781187));
#557 = DIRECTION('',(0.,1.,0.));
#558 = ADVANCED_FACE('',(#559),#586,.F.);
#559 = FACE_BOUND('',#560,.F.);
#560 = EDGE_LOOP('',(#561,#571,#577,#578,#579,#580));
#561 = ORIENTED_EDGE('',*,*,#562,.F.);
#562 = EDGE_CURVE('',#563,#565,#567,.T.);
#563 = VERTEX_POINT('',#564);
#564 = CARTESIAN_POINT('',(80.082385678119,-2.860578,52.1));
#565 = VERTEX_POINT('',#566);
#566 = CARTESIAN_POINT('',(80.082385678119,-2.860578,52.));
#567 = LINE('',#568,#569);
#568 = CARTESIAN_POINT('',(80.082385678119,-2.860578,60.));
#569 = VECTOR('',#570,1.);
#570 = DIRECTION('',(0.,0.,-1.));
#571 = ORIENTED_EDGE('',*,*,#572,.F.);
#572 = EDGE_CURVE('',#116,#563,#573,.T.);
#573 = LINE('',#574,#575);
#574 = CARTESIAN_POINT('',(80.082385678119,-0.160578,54.8));
#575 = VECTOR('',#576,1.);
#576 = DIRECTION('',(0.,-0.707106781187,-0.707106781187));
#577 = ORIENTED_EDGE('',*,*,#115,.F.);
#578 = ORIENTED_EDGE('',*,*,#107,.F.);
#579 = ORIENTED_EDGE('',*,*,#505,.T.);
#580 = ORIENTED_EDGE('',*,*,#581,.T.);
#581 = EDGE_CURVE('',#498,#565,#582,.T.);
#582 = LINE('',#583,#584);
#583 = CARTESIAN_POINT('',(80.082385678119,-7.860578,52.));
#584 = VECTOR('',#585,1.);
#585 = DIRECTION('',(0.,1.,0.));
#586 = PLANE('',#587);
#587 = AXIS2_PLACEMENT_3D('',#588,#589,#590);
#588 = CARTESIAN_POINT('',(80.082385678119,-7.860578,60.));
#589 = DIRECTION('',(1.,0.,0.));
#590 = DIRECTION('',(0.,1.,0.));
#591 = ADVANCED_FACE('',(#592),#603,.F.);
#592 = FACE_BOUND('',#593,.T.);
#593 = EDGE_LOOP('',(#594,#595,#596,#597));
#594 = ORIENTED_EDGE('',*,*,#572,.F.);
#595 = ORIENTED_EDGE('',*,*,#123,.T.);
#596 = ORIENTED_EDGE('',*,*,#538,.T.);
#597 = ORIENTED_EDGE('',*,*,#598,.F.);
#598 = EDGE_CURVE('',#563,#539,#599,.T.);
#599 = LINE('',#600,#601);
#600 = CARTESIAN_POINT('',(80.082385678119,-2.860578,52.1));
#601 = VECTOR('',#602,1.);
#602 = DIRECTION('',(1.,0.,0.));
#603 = PLANE('',#604);
#604 = AXIS2_PLACEMENT_3D('',#605,#606,#607);
#605 = CARTESIAN_POINT('',(80.082385678119,1.089422,56.05));
#606 = DIRECTION('',(-8.E-17,-0.707106781187,0.707106781187));
#607 = DIRECTION('',(-1.,5.656854249492E-17,-5.656854249492E-17));
#608 = ADVANCED_FACE('',(#609,#643),#654,.F.);
#609 = FACE_BOUND('',#610,.F.);
#610 = EDGE_LOOP('',(#611,#621,#627,#628,#629,#637));
#611 = ORIENTED_EDGE('',*,*,#612,.F.);
#612 = EDGE_CURVE('',#613,#615,#617,.T.);
#613 = VERTEX_POINT('',#614);
#614 = CARTESIAN_POINT('',(177.68238567811,-7.860578,52.1));
#615 = VERTEX_POINT('',#616);
#616 = CARTESIAN_POINT('',(177.68238567811,-7.860578,52.));
#617 = LINE('',#618,#619);
#618 = CARTESIAN_POINT('',(177.68238567811,-7.860578,60.));
#619 = VECTOR('',#620,1.);
#620 = DIRECTION('',(0.,0.,-1.));
#621 = ORIENTED_EDGE('',*,*,#622,.F.);
#622 = EDGE_CURVE('',#142,#613,#623,.T.);
#623 = LINE('',#624,#625);
#624 = CARTESIAN_POINT('',(175.73238567811,-7.860578,54.05));
#625 = VECTOR('',#626,1.);
#626 = DIRECTION('',(0.707106781187,0.,-0.707106781187));
#627 = ORIENTED_EDGE('',*,*,#139,.F.);
#628 = ORIENTED_EDGE('',*,*,#181,.F.);
#629 = ORIENTED_EDGE('',*,*,#630,.T.);
#630 = EDGE_CURVE('',#174,#631,#633,.T.);
#631 = VERTEX_POINT('',#632);
#632 = CARTESIAN_POINT('',(185.68238567811,-7.860578,52.));
#633 = LINE('',#634,#635);
#634 = CARTESIAN_POINT('',(185.68238567811,-7.860578,60.));
#635 = VECTOR('',#636,1.);
#636 = DIRECTION('',(0.,0.,-1.));
#637 = ORIENTED_EDGE('',*,*,#638,.T.);
#638 = EDGE_CURVE('',#631,#615,#639,.T.);
#639 = LINE('',#640,#641);
#640 = CARTESIAN_POINT('',(185.68238567811,-7.860578,52.));
#641 = VECTOR('',#642,1.);
#642 = DIRECTION('',(-1.,0.,0.));
#643 = FACE_BOUND('',#644,.F.);
#644 = EDGE_LOOP('',(#645));
#645 = ORIENTED_EDGE('',*,*,#646,.T.);
#646 = EDGE_CURVE('',#647,#647,#649,.T.);
#647 = VERTEX_POINT('',#648);
#648 = CARTESIAN_POINT('',(184.03238567811,-7.860578,56.));
#649 = CIRCLE('',#650,2.35);
#650 = AXIS2_PLACEMENT_3D('',#651,#652,#653);
#651 = CARTESIAN_POINT('',(181.68238567811,-7.860578,56.));
#652 = DIRECTION('',(0.,-1.,0.));
#653 = DIRECTION('',(1.,0.,0.));
#654 = PLANE('',#655);
#655 = AXIS2_PLACEMENT_3D('',#656,#657,#658);
#656 = CARTESIAN_POINT('',(185.68238567811,-7.860578,60.));
#657 = DIRECTION('',(0.,1.,0.));
#658 = DIRECTION('',(-1.,0.,0.));
#659 = ADVANCED_FACE('',(#660),#678,.F.);
#660 = FACE_BOUND('',#661,.T.);
#661 = EDGE_LOOP('',(#662,#663,#664,#672));
#662 = ORIENTED_EDGE('',*,*,#622,.F.);
#663 = ORIENTED_EDGE('',*,*,#149,.T.);
#664 = ORIENTED_EDGE('',*,*,#665,.T.);
#665 = EDGE_CURVE('',#150,#666,#668,.T.);
#666 = VERTEX_POINT('',#667);
#667 = CARTESIAN_POINT('',(177.68238567811,-2.860578,52.1));
#668 = LINE('',#669,#670);
#669 = CARTESIAN_POINT('',(175.88238567811,-1.060578,53.9));
#670 = VECTOR('',#671,1.);
#671 = DIRECTION('',(0.57735026919,-0.57735026919,-0.57735026919));
#672 = ORIENTED_EDGE('',*,*,#673,.F.);
#673 = EDGE_CURVE('',#613,#666,#674,.T.);
#674 = LINE('',#675,#676);
#675 = CARTESIAN_POINT('',(177.68238567811,-7.860578,52.1));
#676 = VECTOR('',#677,1.);
#677 = DIRECTION('',(0.,1.,0.));
#678 = PLANE('',#679);
#679 = AXIS2_PLACEMENT_3D('',#680,#681,#682);
#680 = CARTESIAN_POINT('',(173.73238567811,-7.860578,56.05));
#681 = DIRECTION('',(0.707106781187,0.,0.707106781187));
#682 = DIRECTION('',(0.,-1.,0.));
#683 = ADVANCED_FACE('',(#684),#711,.F.);
#684 = FACE_BOUND('',#685,.F.);
#685 = EDGE_LOOP('',(#686,#696,#702,#703,#704,#705));
#686 = ORIENTED_EDGE('',*,*,#687,.T.);
#687 = EDGE_CURVE('',#688,#690,#692,.T.);
#688 = VERTEX_POINT('',#689);
#689 = CARTESIAN_POINT('',(185.68238567811,-2.860578,52.1));
#690 = VERTEX_POINT('',#691);
#691 = CARTESIAN_POINT('',(185.68238567811,-2.860578,52.));
#692 = LINE('',#693,#694);
#693 = CARTESIAN_POINT('',(185.68238567811,-2.860578,60.));
#694 = VECTOR('',#695,1.);
#695 = DIRECTION('',(0.,0.,-1.));
#696 = ORIENTED_EDGE('',*,*,#697,.T.);
#697 = EDGE_CURVE('',#690,#631,#698,.T.);
#698 = LINE('',#699,#700);
#699 = CARTESIAN_POINT('',(185.68238567811,-2.860578,52.));
#700 = VECTOR('',#701,1.);
#701 = DIRECTION('',(0.,-1.,0.));
#702 = ORIENTED_EDGE('',*,*,#630,.F.);
#703 = ORIENTED_EDGE('',*,*,#173,.F.);
#704 = ORIENTED_EDGE('',*,*,#165,.T.);
#705 = ORIENTED_EDGE('',*,*,#706,.T.);
#706 = EDGE_CURVE('',#158,#688,#707,.T.);
#707 = LINE('',#708,#709);
#708 = CARTESIAN_POINT('',(185.68238567811,1.089422,56.05));
#709 = VECTOR('',#710,1.);
#710 = DIRECTION('',(0.,-0.707106781187,-0.707106781187));
#711 = PLANE('',#712);
#712 = AXIS2_PLACEMENT_3D('',#713,#714,#715);
#713 = CARTESIAN_POINT('',(185.68238567811,-2.860578,60.));
#714 = DIRECTION('',(-1.,-0.,-0.));
#715 = DIRECTION('',(0.,-1.,0.));
#716 = ADVANCED_FACE('',(#717),#728,.F.);
#717 = FACE_BOUND('',#718,.T.);
#718 = EDGE_LOOP('',(#719,#720,#721,#722));
#719 = ORIENTED_EDGE('',*,*,#665,.F.);
#720 = ORIENTED_EDGE('',*,*,#157,.T.);
#721 = ORIENTED_EDGE('',*,*,#706,.T.);
#722 = ORIENTED_EDGE('',*,*,#723,.F.);
#723 = EDGE_CURVE('',#666,#688,#724,.T.);
#724 = LINE('',#725,#726);
#725 = CARTESIAN_POINT('',(177.68238567811,-2.860578,52.1));
#726 = VECTOR('',#727,1.);
#727 = DIRECTION('',(1.,0.,0.));
#728 = PLANE('',#729);
#729 = AXIS2_PLACEMENT_3D('',#730,#731,#732);
#730 = CARTESIAN_POINT('',(177.68238567811,1.089422,56.05));
#731 = DIRECTION('',(-8.E-17,-0.707106781187,0.707106781187));
#732 = DIRECTION('',(-1.,5.656854249492E-17,-5.656854249492E-17));
#733 = ADVANCED_FACE('',(#734,#768),#779,.F.);
#734 = FACE_BOUND('',#735,.F.);
#735 = EDGE_LOOP('',(#736,#746,#752,#753,#754,#762));
#736 = ORIENTED_EDGE('',*,*,#737,.F.);
#737 = EDGE_CURVE('',#738,#740,#742,.T.);
#738 = VERTEX_POINT('',#739);
#739 = CARTESIAN_POINT('',(88.082385678119,102.739422,52.1));
#740 = VERTEX_POINT('',#741);
#741 = CARTESIAN_POINT('',(88.082385678119,102.739422,52.));
#742 = LINE('',#743,#744);
#743 = CARTESIAN_POINT('',(88.082385678119,102.739422,60.));
#744 = VECTOR('',#745,1.);
#745 = DIRECTION('',(0.,0.,-1.));
#746 = ORIENTED_EDGE('',*,*,#747,.F.);
#747 = EDGE_CURVE('',#192,#738,#748,.T.);
#748 = LINE('',#749,#750);
#749 = CARTESIAN_POINT('',(90.032385678119,102.739422,54.05));
#750 = VECTOR('',#751,1.);
#751 = DIRECTION('',(-0.707106781187,-0.,-0.707106781187));
#752 = ORIENTED_EDGE('',*,*,#189,.F.);
#753 = ORIENTED_EDGE('',*,*,#231,.F.);
#754 = ORIENTED_EDGE('',*,*,#755,.T.);
#755 = EDGE_CURVE('',#224,#756,#758,.T.);
#756 = VERTEX_POINT('',#757);
#757 = CARTESIAN_POINT('',(80.082385678119,102.739422,52.));
#758 = LINE('',#759,#760);
#759 = CARTESIAN_POINT('',(80.082385678119,102.739422,60.));
#760 = VECTOR('',#761,1.);
#761 = DIRECTION('',(0.,0.,-1.));
#762 = ORIENTED_EDGE('',*,*,#763,.T.);
#763 = EDGE_CURVE('',#756,#740,#764,.T.);
#764 = LINE('',#765,#766);
#765 = CARTESIAN_POINT('',(80.082385678119,102.739422,52.));
#766 = VECTOR('',#767,1.);
#767 = DIRECTION('',(1.,0.,0.));
#768 = FACE_BOUND('',#769,.F.);
#769 = EDGE_LOOP('',(#770));
#770 = ORIENTED_EDGE('',*,*,#771,.T.);
#771 = EDGE_CURVE('',#772,#772,#774,.T.);
#772 = VERTEX_POINT('',#773);
#773 = CARTESIAN_POINT('',(81.532385678119,102.739422,56.));
#774 = CIRCLE('',#775,2.35);
#775 = AXIS2_PLACEMENT_3D('',#776,#777,#778);
#776 = CARTESIAN_POINT('',(83.882385678119,102.739422,56.));
#777 = DIRECTION('',(0.,1.,-0.));
#778 = DIRECTION('',(-1.,0.,0.));
#779 = PLANE('',#780);
#780 = AXIS2_PLACEMENT_3D('',#781,#782,#783);
#781 = CARTESIAN_POINT('',(80.082385678119,102.739422,60.));
#782 = DIRECTION('',(0.,-1.,0.));
#783 = DIRECTION('',(1.,0.,0.));
#784 = ADVANCED_FACE('',(#785),#803,.F.);
#785 = FACE_BOUND('',#786,.T.);
#786 = EDGE_LOOP('',(#787,#788,#789,#797));
#787 = ORIENTED_EDGE('',*,*,#747,.F.);
#788 = ORIENTED_EDGE('',*,*,#199,.T.);
#789 = ORIENTED_EDGE('',*,*,#790,.T.);
#790 = EDGE_CURVE('',#200,#791,#793,.T.);
#791 = VERTEX_POINT('',#792);
#792 = CARTESIAN_POINT('',(88.082385678119,97.739422,52.1));
#793 = LINE('',#794,#795);
#794 = CARTESIAN_POINT('',(89.882385678119,95.939422,53.9));
#795 = VECTOR('',#796,1.);
#796 = DIRECTION('',(-0.57735026919,0.57735026919,-0.57735026919));
#797 = ORIENTED_EDGE('',*,*,#798,.F.);
#798 = EDGE_CURVE('',#738,#791,#799,.T.);
#799 = LINE('',#800,#801);
#800 = CARTESIAN_POINT('',(88.082385678119,102.739422,52.1));
#801 = VECTOR('',#802,1.);
#802 = DIRECTION('',(0.,-1.,0.));
#803 = PLANE('',#804);
#804 = AXIS2_PLACEMENT_3D('',#805,#806,#807);
#805 = CARTESIAN_POINT('',(92.032385678119,102.739422,56.05));
#806 = DIRECTION('',(-0.707106781187,0.,0.707106781187));
#807 = DIRECTION('',(0.,1.,0.));
#808 = ADVANCED_FACE('',(#809),#836,.F.);
#809 = FACE_BOUND('',#810,.F.);
#810 = EDGE_LOOP('',(#811,#821,#827,#828,#829,#830));
#811 = ORIENTED_EDGE('',*,*,#812,.T.);
#812 = EDGE_CURVE('',#813,#815,#817,.T.);
#813 = VERTEX_POINT('',#814);
#814 = CARTESIAN_POINT('',(80.082385678119,97.739422,52.1));
#815 = VERTEX_POINT('',#816);
#816 = CARTESIAN_POINT('',(80.082385678119,97.739422,52.));
#817 = LINE('',#818,#819);
#818 = CARTESIAN_POINT('',(80.082385678119,97.739422,60.));
#819 = VECTOR('',#820,1.);
#820 = DIRECTION('',(0.,0.,-1.));
#821 = ORIENTED_EDGE('',*,*,#822,.T.);
#822 = EDGE_CURVE('',#815,#756,#823,.T.);
#823 = LINE('',#824,#825);
#824 = CARTESIAN_POINT('',(80.082385678119,97.739422,52.));
#825 = VECTOR('',#826,1.);
#826 = DIRECTION('',(0.,1.,0.));
#827 = ORIENTED_EDGE('',*,*,#755,.F.);
#828 = ORIENTED_EDGE('',*,*,#223,.F.);
#829 = ORIENTED_EDGE('',*,*,#215,.T.);
#830 = ORIENTED_EDGE('',*,*,#831,.T.);
#831 = EDGE_CURVE('',#208,#813,#832,.T.);
#832 = LINE('',#833,#834);
#833 = CARTESIAN_POINT('',(80.082385678119,93.789422,56.05));
#834 = VECTOR('',#835,1.);
#835 = DIRECTION('',(0.,0.707106781187,-0.707106781187));
#836 = PLANE('',#837);
#837 = AXIS2_PLACEMENT_3D('',#838,#839,#840);
#838 = CARTESIAN_POINT('',(80.082385678119,97.739422,60.));
#839 = DIRECTION('',(1.,0.,0.));
#840 = DIRECTION('',(0.,1.,0.));
#841 = ADVANCED_FACE('',(#842),#853,.F.);
#842 = FACE_BOUND('',#843,.T.);
#843 = EDGE_LOOP('',(#844,#845,#846,#847));
#844 = ORIENTED_EDGE('',*,*,#790,.F.);
#845 = ORIENTED_EDGE('',*,*,#207,.T.);
#846 = ORIENTED_EDGE('',*,*,#831,.T.);
#847 = ORIENTED_EDGE('',*,*,#848,.F.);
#848 = EDGE_CURVE('',#791,#813,#849,.T.);
#849 = LINE('',#850,#851);
#850 = CARTESIAN_POINT('',(88.082385678119,97.739422,52.1));
#851 = VECTOR('',#852,1.);
#852 = DIRECTION('',(-1.,0.,0.));
#853 = PLANE('',#854);
#854 = AXIS2_PLACEMENT_3D('',#855,#856,#857);
#855 = CARTESIAN_POINT('',(88.082385678119,93.789422,56.05));
#856 = DIRECTION('',(0.,0.707106781187,0.707106781187));
#857 = DIRECTION('',(1.,0.,0.));
#858 = ADVANCED_FACE('',(#859),#893,.F.);
#859 = FACE_BOUND('',#860,.F.);
#860 = EDGE_LOOP('',(#861,#871,#877,#878,#879,#887));
#861 = ORIENTED_EDGE('',*,*,#862,.F.);
#862 = EDGE_CURVE('',#863,#865,#867,.T.);
#863 = VERTEX_POINT('',#864);
#864 = CARTESIAN_POINT('',(185.68238567811,97.739422,52.1));
#865 = VERTEX_POINT('',#866);
#866 = CARTESIAN_POINT('',(185.68238567811,97.739422,52.));
#867 = LINE('',#868,#869);
#868 = CARTESIAN_POINT('',(185.68238567811,97.739422,60.));
#869 = VECTOR('',#870,1.);
#870 = DIRECTION('',(0.,0.,-1.));
#871 = ORIENTED_EDGE('',*,*,#872,.F.);
#872 = EDGE_CURVE('',#242,#863,#873,.T.);
#873 = LINE('',#874,#875);
#874 = CARTESIAN_POINT('',(185.68238567811,95.039422,54.8));
#875 = VECTOR('',#876,1.);
#876 = DIRECTION('',(0.,0.707106781187,-0.707106781187));
#877 = ORIENTED_EDGE('',*,*,#239,.F.);
#878 = ORIENTED_EDGE('',*,*,#281,.F.);
#879 = ORIENTED_EDGE('',*,*,#880,.T.);
#880 = EDGE_CURVE('',#274,#881,#883,.T.);
#881 = VERTEX_POINT('',#882);
#882 = CARTESIAN_POINT('',(185.68238567811,102.739422,52.));
#883 = LINE('',#884,#885);
#884 = CARTESIAN_POINT('',(185.68238567811,102.739422,60.));
#885 = VECTOR('',#886,1.);
#886 = DIRECTION('',(0.,0.,-1.));
#887 = ORIENTED_EDGE('',*,*,#888,.T.);
#888 = EDGE_CURVE('',#881,#865,#889,.T.);
#889 = LINE('',#890,#891);
#890 = CARTESIAN_POINT('',(185.68238567811,102.739422,52.));
#891 = VECTOR('',#892,1.);
#892 = DIRECTION('',(0.,-1.,0.));
#893 = PLANE('',#894);
#894 = AXIS2_PLACEMENT_3D('',#895,#896,#897);
#895 = CARTESIAN_POINT('',(185.68238567811,102.739422,60.));
#896 = DIRECTION('',(-1.,-0.,-0.));
#897 = DIRECTION('',(0.,-1.,0.));
#898 = ADVANCED_FACE('',(#899),#917,.F.);
#899 = FACE_BOUND('',#900,.T.);
#900 = EDGE_LOOP('',(#901,#902,#903,#911));
#901 = ORIENTED_EDGE('',*,*,#872,.F.);
#902 = ORIENTED_EDGE('',*,*,#249,.T.);
#903 = ORIENTED_EDGE('',*,*,#904,.T.);
#904 = EDGE_CURVE('',#250,#905,#907,.T.);
#905 = VERTEX_POINT('',#906);
#906 = CARTESIAN_POINT('',(177.68238567811,97.739422,52.1));
#907 = LINE('',#908,#909);
#908 = CARTESIAN_POINT('',(176.38238567811,96.439422,53.4));
#909 = VECTOR('',#910,1.);
#910 = DIRECTION('',(0.57735026919,0.57735026919,-0.57735026919));
#911 = ORIENTED_EDGE('',*,*,#912,.F.);
#912 = EDGE_CURVE('',#863,#905,#913,.T.);
#913 = LINE('',#914,#915);
#914 = CARTESIAN_POINT('',(185.68238567811,97.739422,52.1));
#915 = VECTOR('',#916,1.);
#916 = DIRECTION('',(-1.,0.,0.));
#917 = PLANE('',#918);
#918 = AXIS2_PLACEMENT_3D('',#919,#920,#921);
#919 = CARTESIAN_POINT('',(185.68238567811,93.789422,56.05));
#920 = DIRECTION('',(0.,0.707106781187,0.707106781187));
#921 = DIRECTION('',(1.,0.,0.));
#922 = ADVANCED_FACE('',(#923,#950),#961,.F.);
#923 = FACE_BOUND('',#924,.F.);
#924 = EDGE_LOOP('',(#925,#935,#941,#942,#943,#944));
#925 = ORIENTED_EDGE('',*,*,#926,.T.);
#926 = EDGE_CURVE('',#927,#929,#931,.T.);
#927 = VERTEX_POINT('',#928);
#928 = CARTESIAN_POINT('',(177.68238567811,102.739422,52.1));
#929 = VERTEX_POINT('',#930);
#930 = CARTESIAN_POINT('',(177.68238567811,102.739422,52.));
#931 = LINE('',#932,#933);
#932 = CARTESIAN_POINT('',(177.68238567811,102.739422,60.));
#933 = VECTOR('',#934,1.);
#934 = DIRECTION('',(0.,0.,-1.));
#935 = ORIENTED_EDGE('',*,*,#936,.T.);
#936 = EDGE_CURVE('',#929,#881,#937,.T.);
#937 = LINE('',#938,#939);
#938 = CARTESIAN_POINT('',(177.68238567811,102.739422,52.));
#939 = VECTOR('',#940,1.);
#940 = DIRECTION('',(1.,0.,0.));
#941 = ORIENTED_EDGE('',*,*,#880,.F.);
#942 = ORIENTED_EDGE('',*,*,#273,.F.);
#943 = ORIENTED_EDGE('',*,*,#265,.T.);
#944 = ORIENTED_EDGE('',*,*,#945,.T.);
#945 = EDGE_CURVE('',#258,#927,#946,.T.);
#946 = LINE('',#947,#948);
#947 = CARTESIAN_POINT('',(173.73238567811,102.739422,56.05));
#948 = VECTOR('',#949,1.);
#949 = DIRECTION('',(0.707106781187,0.,-0.707106781187));
#950 = FACE_BOUND('',#951,.F.);
#951 = EDGE_LOOP('',(#952));
#952 = ORIENTED_EDGE('',*,*,#953,.T.);
#953 = EDGE_CURVE('',#954,#954,#956,.T.);
#954 = VERTEX_POINT('',#955);
#955 = CARTESIAN_POINT('',(179.53238567811,102.739422,56.));
#956 = CIRCLE('',#957,2.35);
#957 = AXIS2_PLACEMENT_3D('',#958,#959,#960);
#958 = CARTESIAN_POINT('',(181.88238567811,102.739422,56.));
#959 = DIRECTION('',(0.,1.,-0.));
#960 = DIRECTION('',(-1.,0.,0.));
#961 = PLANE('',#962);
#962 = AXIS2_PLACEMENT_3D('',#963,#964,#965);
#963 = CARTESIAN_POINT('',(177.68238567811,102.739422,60.));
#964 = DIRECTION('',(0.,-1.,0.));
#965 = DIRECTION('',(1.,0.,0.));
#966 = ADVANCED_FACE('',(#967),#978,.F.);
#967 = FACE_BOUND('',#968,.T.);
#968 = EDGE_LOOP('',(#969,#970,#971,#972));
#969 = ORIENTED_EDGE('',*,*,#904,.F.);
#970 = ORIENTED_EDGE('',*,*,#257,.T.);
#971 = ORIENTED_EDGE('',*,*,#945,.T.);
#972 = ORIENTED_EDGE('',*,*,#973,.F.);
#973 = EDGE_CURVE('',#905,#927,#974,.T.);
#974 = LINE('',#975,#976);
#975 = CARTESIAN_POINT('',(177.68238567811,97.739422,52.1));
#976 = VECTOR('',#977,1.);
#977 = DIRECTION('',(0.,1.,0.));
#978 = PLANE('',#979);
#979 = AXIS2_PLACEMENT_3D('',#980,#981,#982);
#980 = CARTESIAN_POINT('',(173.73238567811,97.739422,56.05));
#981 = DIRECTION('',(0.707106781187,0.,0.707106781187));
#982 = DIRECTION('',(0.,-1.,0.));
#983 = ADVANCED_FACE('',(#984),#1009,.F.);
#984 = FACE_BOUND('',#985,.F.);
#985 = EDGE_LOOP('',(#986,#994,#1002,#1008));
#986 = ORIENTED_EDGE('',*,*,#987,.T.);
#987 = EDGE_CURVE('',#296,#988,#990,.T.);
#988 = VERTEX_POINT('',#989);
#989 = CARTESIAN_POINT('',(158.43529179301,4.901531185515,56.));
#990 = LINE('',#991,#992);
#991 = CARTESIAN_POINT('',(158.43529179301,4.901531185515,60.));
#992 = VECTOR('',#993,1.);
#993 = DIRECTION('',(0.,0.,-1.));
#994 = ORIENTED_EDGE('',*,*,#995,.T.);
#995 = EDGE_CURVE('',#988,#996,#998,.T.);
#996 = VERTEX_POINT('',#997);
#997 = CARTESIAN_POINT('',(150.43529179301,4.901531185515,56.));
#998 = LINE('',#999,#1000);
#999 = CARTESIAN_POINT('',(158.43529179301,4.901531185515,56.));
#1000 = VECTOR('',#1001,1.);
#1001 = DIRECTION('',(-1.,0.,0.));
#1002 = ORIENTED_EDGE('',*,*,#1003,.F.);
#1003 = EDGE_CURVE('',#305,#996,#1004,.T.);
#1004 = LINE('',#1005,#1006);
#1005 = CARTESIAN_POINT('',(150.43529179301,4.901531185515,60.));
#1006 = VECTOR('',#1007,1.);
#1007 = DIRECTION('',(0.,0.,-1.));
#1008 = ORIENTED_EDGE('',*,*,#312,.F.);
#1009 = PLANE('',#1010);
#1010 = AXIS2_PLACEMENT_3D('',#1011,#1012,#1013);
#1011 = CARTESIAN_POINT('',(158.43529179301,4.901531185515,60.));
#1012 = DIRECTION('',(0.,1.,0.));
#1013 = DIRECTION('',(-1.,0.,0.));
#1014 = ADVANCED_FACE('',(#1015),#1033,.F.);
#1015 = FACE_BOUND('',#1016,.F.);
#1016 = EDGE_LOOP('',(#1017,#1025,#1031,#1032));
#1017 = ORIENTED_EDGE('',*,*,#1018,.T.);
#1018 = EDGE_CURVE('',#327,#1019,#1021,.T.);
#1019 = VERTEX_POINT('',#1020);
#1020 = CARTESIAN_POINT('',(158.43529179301,12.901531185515,56.));
#1021 = LINE('',#1022,#1023);
#1022 = CARTESIAN_POINT('',(158.43529179301,12.901531185515,60.));
#1023 = VECTOR('',#1024,1.);
#1024 = DIRECTION('',(0.,0.,-1.));
#1025 = ORIENTED_EDGE('',*,*,#1026,.T.);
#1026 = EDGE_CURVE('',#1019,#988,#1027,.T.);
#1027 = LINE('',#1028,#1029);
#1028 = CARTESIAN_POINT('',(158.43529179301,12.901531185515,56.));
#1029 = VECTOR('',#1030,1.);
#1030 = DIRECTION('',(0.,-1.,0.));
#1031 = ORIENTED_EDGE('',*,*,#987,.F.);
#1032 = ORIENTED_EDGE('',*,*,#336,.F.);
#1033 = PLANE('',#1034);
#1034 = AXIS2_PLACEMENT_3D('',#1035,#1036,#1037);
#1035 = CARTESIAN_POINT('',(158.43529179301,12.901531185515,60.));
#1036 = DIRECTION('',(-1.,-0.,-0.));
#1037 = DIRECTION('',(0.,-1.,0.));
#1038 = ADVANCED_FACE('',(#1039),#1057,.F.);
#1039 = FACE_BOUND('',#1040,.F.);
#1040 = EDGE_LOOP('',(#1041,#1042,#1050,#1056));
#1041 = ORIENTED_EDGE('',*,*,#1003,.T.);
#1042 = ORIENTED_EDGE('',*,*,#1043,.T.);
#1043 = EDGE_CURVE('',#996,#1044,#1046,.T.);
#1044 = VERTEX_POINT('',#1045);
#1045 = CARTESIAN_POINT('',(150.43529179301,12.901531185515,56.));
#1046 = LINE('',#1047,#1048);
#1047 = CARTESIAN_POINT('',(150.43529179301,4.901531185515,56.));
#1048 = VECTOR('',#1049,1.);
#1049 = DIRECTION('',(0.,1.,0.));
#1050 = ORIENTED_EDGE('',*,*,#1051,.F.);
#1051 = EDGE_CURVE('',#353,#1044,#1052,.T.);
#1052 = LINE('',#1053,#1054);
#1053 = CARTESIAN_POINT('',(150.43529179301,12.901531185515,60.));
#1054 = VECTOR('',#1055,1.);
#1055 = DIRECTION('',(0.,0.,-1.));
#1056 = ORIENTED_EDGE('',*,*,#360,.F.);
#1057 = PLANE('',#1058);
#1058 = AXIS2_PLACEMENT_3D('',#1059,#1060,#1061);
#1059 = CARTESIAN_POINT('',(150.43529179301,4.901531185515,60.));
#1060 = DIRECTION('',(1.,0.,0.));
#1061 = DIRECTION('',(0.,1.,0.));
#1062 = ADVANCED_FACE('',(#1063),#1074,.F.);
#1063 = FACE_BOUND('',#1064,.F.);
#1064 = EDGE_LOOP('',(#1065,#1066,#1072,#1073));
#1065 = ORIENTED_EDGE('',*,*,#1051,.T.);
#1066 = ORIENTED_EDGE('',*,*,#1067,.T.);
#1067 = EDGE_CURVE('',#1044,#1019,#1068,.T.);
#1068 = LINE('',#1069,#1070);
#1069 = CARTESIAN_POINT('',(150.43529179301,12.901531185515,56.));
#1070 = VECTOR('',#1071,1.);
#1071 = DIRECTION('',(1.,0.,0.));
#1072 = ORIENTED_EDGE('',*,*,#1018,.F.);
#1073 = ORIENTED_EDGE('',*,*,#377,.F.);
#1074 = PLANE('',#1075);
#1075 = AXIS2_PLACEMENT_3D('',#1076,#1077,#1078);
#1076 = CARTESIAN_POINT('',(150.43529179301,12.901531185515,60.));
#1077 = DIRECTION('',(0.,-1.,0.));
#1078 = DIRECTION('',(1.,0.,0.));
#1079 = ADVANCED_FACE('',(#1080),#1086,.T.);
#1080 = FACE_BOUND('',#1081,.F.);
#1081 = EDGE_LOOP('',(#1082,#1083,#1084,#1085));
#1082 = ORIENTED_EDGE('',*,*,#399,.T.);
#1083 = ORIENTED_EDGE('',*,*,#454,.F.);
#1084 = ORIENTED_EDGE('',*,*,#471,.F.);
#1085 = ORIENTED_EDGE('',*,*,#423,.F.);
#1086 = PLANE('',#1087);
#1087 = AXIS2_PLACEMENT_3D('',#1088,#1089,#1090);
#1088 = CARTESIAN_POINT('',(132.88238567811,47.939422,62.));
#1089 = DIRECTION('',(0.,0.,1.));
#1090 = DIRECTION('',(1.,0.,0.));
#1091 = ADVANCED_FACE('',(#1092),#1110,.F.);
#1092 = FACE_BOUND('',#1093,.F.);
#1093 = EDGE_LOOP('',(#1094,#1102,#1108,#1109));
#1094 = ORIENTED_EDGE('',*,*,#1095,.T.);
#1095 = EDGE_CURVE('',#539,#1096,#1098,.T.);
#1096 = VERTEX_POINT('',#1097);
#1097 = CARTESIAN_POINT('',(88.082385678119,-2.860578,52.));
#1098 = LINE('',#1099,#1100);
#1099 = CARTESIAN_POINT('',(88.082385678119,-2.860578,60.));
#1100 = VECTOR('',#1101,1.);
#1101 = DIRECTION('',(0.,0.,-1.));
#1102 = ORIENTED_EDGE('',*,*,#1103,.T.);
#1103 = EDGE_CURVE('',#1096,#490,#1104,.T.);
#1104 = LINE('',#1105,#1106);
#1105 = CARTESIAN_POINT('',(88.082385678119,-2.860578,52.));
#1106 = VECTOR('',#1107,1.);
#1107 = DIRECTION('',(0.,-1.,0.));
#1108 = ORIENTED_EDGE('',*,*,#487,.F.);
#1109 = ORIENTED_EDGE('',*,*,#548,.F.);
#1110 = PLANE('',#1111);
#1111 = AXIS2_PLACEMENT_3D('',#1112,#1113,#1114);
#1112 = CARTESIAN_POINT('',(88.082385678119,-2.860578,60.));
#1113 = DIRECTION('',(-1.,-0.,-0.));
#1114 = DIRECTION('',(0.,-1.,0.));
#1115 = ADVANCED_FACE('',(#1116),#1127,.F.);
#1116 = FACE_BOUND('',#1117,.T.);
#1117 = EDGE_LOOP('',(#1118,#1119,#1125,#1126));
#1118 = ORIENTED_EDGE('',*,*,#581,.T.);
#1119 = ORIENTED_EDGE('',*,*,#1120,.T.);
#1120 = EDGE_CURVE('',#565,#1096,#1121,.T.);
#1121 = LINE('',#1122,#1123);
#1122 = CARTESIAN_POINT('',(80.082385678119,-2.860578,52.));
#1123 = VECTOR('',#1124,1.);
#1124 = DIRECTION('',(1.,0.,0.));
#1125 = ORIENTED_EDGE('',*,*,#1103,.T.);
#1126 = ORIENTED_EDGE('',*,*,#497,.T.);
#1127 = PLANE('',#1128);
#1128 = AXIS2_PLACEMENT_3D('',#1129,#1130,#1131);
#1129 = CARTESIAN_POINT('',(132.88238567811,47.439422,52.));
#1130 = DIRECTION('',(0.,0.,1.));
#1131 = DIRECTION('',(1.,0.,0.));
#1132 = ADVANCED_FACE('',(#1133),#1152,.F.);
#1133 = FACE_BOUND('',#1134,.F.);
#1134 = EDGE_LOOP('',(#1135,#1143,#1150,#1151));
#1135 = ORIENTED_EDGE('',*,*,#1136,.T.);
#1136 = EDGE_CURVE('',#522,#1137,#1139,.T.);
#1137 = VERTEX_POINT('',#1138);
#1138 = CARTESIAN_POINT('',(86.432385678119,-3.860578,56.));
#1139 = LINE('',#1140,#1141);
#1140 = CARTESIAN_POINT('',(86.432385678119,-7.860578,56.));
#1141 = VECTOR('',#1142,1.);
#1142 = DIRECTION('',(0.,1.,-2.2E-16));
#1143 = ORIENTED_EDGE('',*,*,#1144,.T.);
#1144 = EDGE_CURVE('',#1137,#1137,#1145,.T.);
#1145 = CIRCLE('',#1146,2.35);
#1146 = AXIS2_PLACEMENT_3D('',#1147,#1148,#1149);
#1147 = CARTESIAN_POINT('',(84.082385678119,-3.860578,56.));
#1148 = DIRECTION('',(0.,-1.,0.));
#1149 = DIRECTION('',(1.,0.,0.));
#1150 = ORIENTED_EDGE('',*,*,#1136,.F.);
#1151 = ORIENTED_EDGE('',*,*,#521,.F.);
#1152 = CYLINDRICAL_SURFACE('',#1153,2.35);
#1153 = AXIS2_PLACEMENT_3D('',#1154,#1155,#1156);
#1154 = CARTESIAN_POINT('',(84.082385678119,-7.860578,56.));
#1155 = DIRECTION('',(0.,-1.,2.2E-16));
#1156 = DIRECTION('',(1.,0.,0.));
#1157 = ADVANCED_FACE('',(#1158),#1164,.F.);
#1158 = FACE_BOUND('',#1159,.F.);
#1159 = EDGE_LOOP('',(#1160,#1161,#1162,#1163));
#1160 = ORIENTED_EDGE('',*,*,#562,.T.);
#1161 = ORIENTED_EDGE('',*,*,#1120,.T.);
#1162 = ORIENTED_EDGE('',*,*,#1095,.F.);
#1163 = ORIENTED_EDGE('',*,*,#598,.F.);
#1164 = PLANE('',#1165);
#1165 = AXIS2_PLACEMENT_3D('',#1166,#1167,#1168);
#1166 = CARTESIAN_POINT('',(80.082385678119,-2.860578,60.));
#1167 = DIRECTION('',(0.,-1.,0.));
#1168 = DIRECTION('',(1.,0.,0.));
#1169 = ADVANCED_FACE('',(#1170),#1188,.F.);
#1170 = FACE_BOUND('',#1171,.F.);
#1171 = EDGE_LOOP('',(#1172,#1173,#1181,#1187));
#1172 = ORIENTED_EDGE('',*,*,#612,.T.);
#1173 = ORIENTED_EDGE('',*,*,#1174,.T.);
#1174 = EDGE_CURVE('',#615,#1175,#1177,.T.);
#1175 = VERTEX_POINT('',#1176);
#1176 = CARTESIAN_POINT('',(177.68238567811,-2.860578,52.));
#1177 = LINE('',#1178,#1179);
#1178 = CARTESIAN_POINT('',(177.68238567811,-7.860578,52.));
#1179 = VECTOR('',#1180,1.);
#1180 = DIRECTION('',(0.,1.,0.));
#1181 = ORIENTED_EDGE('',*,*,#1182,.F.);
#1182 = EDGE_CURVE('',#666,#1175,#1183,.T.);
#1183 = LINE('',#1184,#1185);
#1184 = CARTESIAN_POINT('',(177.68238567811,-2.860578,60.));
#1185 = VECTOR('',#1186,1.);
#1186 = DIRECTION('',(0.,0.,-1.));
#1187 = ORIENTED_EDGE('',*,*,#673,.F.);
#1188 = PLANE('',#1189);
#1189 = AXIS2_PLACEMENT_3D('',#1190,#1191,#1192);
#1190 = CARTESIAN_POINT('',(177.68238567811,-7.860578,60.));
#1191 = DIRECTION('',(1.,0.,0.));
#1192 = DIRECTION('',(0.,1.,0.));
#1193 = ADVANCED_FACE('',(#1194),#1205,.F.);
#1194 = FACE_BOUND('',#1195,.T.);
#1195 = EDGE_LOOP('',(#1196,#1197,#1198,#1204));
#1196 = ORIENTED_EDGE('',*,*,#638,.T.);
#1197 = ORIENTED_EDGE('',*,*,#1174,.T.);
#1198 = ORIENTED_EDGE('',*,*,#1199,.T.);
#1199 = EDGE_CURVE('',#1175,#690,#1200,.T.);
#1200 = LINE('',#1201,#1202);
#1201 = CARTESIAN_POINT('',(177.68238567811,-2.860578,52.));
#1202 = VECTOR('',#1203,1.);
#1203 = DIRECTION('',(1.,0.,0.));
#1204 = ORIENTED_EDGE('',*,*,#697,.T.);
#1205 = PLANE('',#1206);
#1206 = AXIS2_PLACEMENT_3D('',#1207,#1208,#1209);
#1207 = CARTESIAN_POINT('',(132.88238567811,47.439422,52.));
#1208 = DIRECTION('',(0.,0.,1.));
#1209 = DIRECTION('',(1.,0.,0.));
#1210 = ADVANCED_FACE('',(#1211),#1230,.F.);
#1211 = FACE_BOUND('',#1212,.F.);
#1212 = EDGE_LOOP('',(#1213,#1221,#1228,#1229));
#1213 = ORIENTED_EDGE('',*,*,#1214,.T.);
#1214 = EDGE_CURVE('',#647,#1215,#1217,.T.);
#1215 = VERTEX_POINT('',#1216);
#1216 = CARTESIAN_POINT('',(184.03238567811,-3.860578,56.));
#1217 = LINE('',#1218,#1219);
#1218 = CARTESIAN_POINT('',(184.03238567811,-7.860578,56.));
#1219 = VECTOR('',#1220,1.);
#1220 = DIRECTION('',(0.,1.,-2.2E-16));
#1221 = ORIENTED_EDGE('',*,*,#1222,.T.);
#1222 = EDGE_CURVE('',#1215,#1215,#1223,.T.);
#1223 = CIRCLE('',#1224,2.35);
#1224 = AXIS2_PLACEMENT_3D('',#1225,#1226,#1227);
#1225 = CARTESIAN_POINT('',(181.68238567811,-3.860578,56.));
#1226 = DIRECTION('',(0.,-1.,0.));
#1227 = DIRECTION('',(1.,0.,0.));
#1228 = ORIENTED_EDGE('',*,*,#1214,.F.);
#1229 = ORIENTED_EDGE('',*,*,#646,.F.);
#1230 = CYLINDRICAL_SURFACE('',#1231,2.35);
#1231 = AXIS2_PLACEMENT_3D('',#1232,#1233,#1234);
#1232 = CARTESIAN_POINT('',(181.68238567811,-7.860578,56.));
#1233 = DIRECTION('',(0.,-1.,2.2E-16));
#1234 = DIRECTION('',(1.,0.,0.));
#1235 = ADVANCED_FACE('',(#1236),#1242,.F.);
#1236 = FACE_BOUND('',#1237,.F.);
#1237 = EDGE_LOOP('',(#1238,#1239,#1240,#1241));
#1238 = ORIENTED_EDGE('',*,*,#1182,.T.);
#1239 = ORIENTED_EDGE('',*,*,#1199,.T.);
#1240 = ORIENTED_EDGE('',*,*,#687,.F.);
#1241 = ORIENTED_EDGE('',*,*,#723,.F.);
#1242 = PLANE('',#1243);
#1243 = AXIS2_PLACEMENT_3D('',#1244,#1245,#1246);
#1244 = CARTESIAN_POINT('',(177.68238567811,-2.860578,60.));
#1245 = DIRECTION('',(0.,-1.,0.));
#1246 = DIRECTION('',(1.,0.,0.));
#1247 = ADVANCED_FACE('',(#1248),#1266,.F.);
#1248 = FACE_BOUND('',#1249,.F.);
#1249 = EDGE_LOOP('',(#1250,#1251,#1259,#1265));
#1250 = ORIENTED_EDGE('',*,*,#737,.T.);
#1251 = ORIENTED_EDGE('',*,*,#1252,.T.);
#1252 = EDGE_CURVE('',#740,#1253,#1255,.T.);
#1253 = VERTEX_POINT('',#1254);
#1254 = CARTESIAN_POINT('',(88.082385678119,97.739422,52.));
#1255 = LINE('',#1256,#1257);
#1256 = CARTESIAN_POINT('',(88.082385678119,102.739422,52.));
#1257 = VECTOR('',#1258,1.);
#1258 = DIRECTION('',(0.,-1.,0.));
#1259 = ORIENTED_EDGE('',*,*,#1260,.F.);
#1260 = EDGE_CURVE('',#791,#1253,#1261,.T.);
#1261 = LINE('',#1262,#1263);
#1262 = CARTESIAN_POINT('',(88.082385678119,97.739422,60.));
#1263 = VECTOR('',#1264,1.);
#1264 = DIRECTION('',(0.,0.,-1.));
#1265 = ORIENTED_EDGE('',*,*,#798,.F.);
#1266 = PLANE('',#1267);
#1267 = AXIS2_PLACEMENT_3D('',#1268,#1269,#1270);
#1268 = CARTESIAN_POINT('',(88.082385678119,102.739422,60.));
#1269 = DIRECTION('',(-1.,-0.,-0.));
#1270 = DIRECTION('',(0.,-1.,0.));
#1271 = ADVANCED_FACE('',(#1272),#1283,.F.);
#1272 = FACE_BOUND('',#1273,.T.);
#1273 = EDGE_LOOP('',(#1274,#1275,#1276,#1282));
#1274 = ORIENTED_EDGE('',*,*,#763,.T.);
#1275 = ORIENTED_EDGE('',*,*,#1252,.T.);
#1276 = ORIENTED_EDGE('',*,*,#1277,.T.);
#1277 = EDGE_CURVE('',#1253,#815,#1278,.T.);
#1278 = LINE('',#1279,#1280);
#1279 = CARTESIAN_POINT('',(88.082385678119,97.739422,52.));
#1280 = VECTOR('',#1281,1.);
#1281 = DIRECTION('',(-1.,0.,0.));
#1282 = ORIENTED_EDGE('',*,*,#822,.T.);
#1283 = PLANE('',#1284);
#1284 = AXIS2_PLACEMENT_3D('',#1285,#1286,#1287);
#1285 = CARTESIAN_POINT('',(132.88238567811,47.439422,52.));
#1286 = DIRECTION('',(0.,0.,1.));
#1287 = DIRECTION('',(1.,0.,0.));
#1288 = ADVANCED_FACE('',(#1289),#1308,.F.);
#1289 = FACE_BOUND('',#1290,.F.);
#1290 = EDGE_LOOP('',(#1291,#1299,#1306,#1307));
#1291 = ORIENTED_EDGE('',*,*,#1292,.T.);
#1292 = EDGE_CURVE('',#772,#1293,#1295,.T.);
#1293 = VERTEX_POINT('',#1294);
#1294 = CARTESIAN_POINT('',(81.532385678119,98.739422,56.));
#1295 = LINE('',#1296,#1297);
#1296 = CARTESIAN_POINT('',(81.532385678119,102.739422,56.));
#1297 = VECTOR('',#1298,1.);
#1298 = DIRECTION('',(0.,-1.,2.2E-16));
#1299 = ORIENTED_EDGE('',*,*,#1300,.T.);
#1300 = EDGE_CURVE('',#1293,#1293,#1301,.T.);
#1301 = CIRCLE('',#1302,2.35);
#1302 = AXIS2_PLACEMENT_3D('',#1303,#1304,#1305);
#1303 = CARTESIAN_POINT('',(83.882385678119,98.739422,56.));
#1304 = DIRECTION('',(0.,1.,-0.));
#1305 = DIRECTION('',(-1.,0.,0.));
#1306 = ORIENTED_EDGE('',*,*,#1292,.F.);
#1307 = ORIENTED_EDGE('',*,*,#771,.F.);
#1308 = CYLINDRICAL_SURFACE('',#1309,2.35);
#1309 = AXIS2_PLACEMENT_3D('',#1310,#1311,#1312);
#1310 = CARTESIAN_POINT('',(83.882385678119,102.739422,56.));
#1311 = DIRECTION('',(0.,1.,-2.2E-16));
#1312 = DIRECTION('',(-1.,0.,0.));
#1313 = ADVANCED_FACE('',(#1314),#1320,.F.);
#1314 = FACE_BOUND('',#1315,.F.);
#1315 = EDGE_LOOP('',(#1316,#1317,#1318,#1319));
#1316 = ORIENTED_EDGE('',*,*,#1260,.T.);
#1317 = ORIENTED_EDGE('',*,*,#1277,.T.);
#1318 = ORIENTED_EDGE('',*,*,#812,.F.);
#1319 = ORIENTED_EDGE('',*,*,#848,.F.);
#1320 = PLANE('',#1321);
#1321 = AXIS2_PLACEMENT_3D('',#1322,#1323,#1324);
#1322 = CARTESIAN_POINT('',(88.082385678119,97.739422,60.));
#1323 = DIRECTION('',(0.,1.,0.));
#1324 = DIRECTION('',(-1.,0.,0.));
#1325 = ADVANCED_FACE('',(#1326),#1344,.F.);
#1326 = FACE_BOUND('',#1327,.F.);
#1327 = EDGE_LOOP('',(#1328,#1329,#1337,#1343));
#1328 = ORIENTED_EDGE('',*,*,#862,.T.);
#1329 = ORIENTED_EDGE('',*,*,#1330,.T.);
#1330 = EDGE_CURVE('',#865,#1331,#1333,.T.);
#1331 = VERTEX_POINT('',#1332);
#1332 = CARTESIAN_POINT('',(177.68238567811,97.739422,52.));
#1333 = LINE('',#1334,#1335);
#1334 = CARTESIAN_POINT('',(185.68238567811,97.739422,52.));
#1335 = VECTOR('',#1336,1.);
#1336 = DIRECTION('',(-1.,0.,0.));
#1337 = ORIENTED_EDGE('',*,*,#1338,.F.);
#1338 = EDGE_CURVE('',#905,#1331,#1339,.T.);
#1339 = LINE('',#1340,#1341);
#1340 = CARTESIAN_POINT('',(177.68238567811,97.739422,60.));
#1341 = VECTOR('',#1342,1.);
#1342 = DIRECTION('',(0.,0.,-1.));
#1343 = ORIENTED_EDGE('',*,*,#912,.F.);
#1344 = PLANE('',#1345);
#1345 = AXIS2_PLACEMENT_3D('',#1346,#1347,#1348);
#1346 = CARTESIAN_POINT('',(185.68238567811,97.739422,60.));
#1347 = DIRECTION('',(0.,1.,0.));
#1348 = DIRECTION('',(-1.,0.,0.));
#1349 = ADVANCED_FACE('',(#1350),#1361,.F.);
#1350 = FACE_BOUND('',#1351,.T.);
#1351 = EDGE_LOOP('',(#1352,#1358,#1359,#1360));
#1352 = ORIENTED_EDGE('',*,*,#1353,.T.);
#1353 = EDGE_CURVE('',#1331,#929,#1354,.T.);
#1354 = LINE('',#1355,#1356);
#1355 = CARTESIAN_POINT('',(177.68238567811,97.739422,52.));
#1356 = VECTOR('',#1357,1.);
#1357 = DIRECTION('',(0.,1.,0.));
#1358 = ORIENTED_EDGE('',*,*,#936,.T.);
#1359 = ORIENTED_EDGE('',*,*,#888,.T.);
#1360 = ORIENTED_EDGE('',*,*,#1330,.T.);
#1361 = PLANE('',#1362);
#1362 = AXIS2_PLACEMENT_3D('',#1363,#1364,#1365);
#1363 = CARTESIAN_POINT('',(132.88238567811,47.439422,52.));
#1364 = DIRECTION('',(0.,0.,1.));
#1365 = DIRECTION('',(1.,0.,0.));
#1366 = ADVANCED_FACE('',(#1367),#1373,.F.);
#1367 = FACE_BOUND('',#1368,.F.);
#1368 = EDGE_LOOP('',(#1369,#1370,#1371,#1372));
#1369 = ORIENTED_EDGE('',*,*,#1338,.T.);
#1370 = ORIENTED_EDGE('',*,*,#1353,.T.);
#1371 = ORIENTED_EDGE('',*,*,#926,.F.);
#1372 = ORIENTED_EDGE('',*,*,#973,.F.);
#1373 = PLANE('',#1374);
#1374 = AXIS2_PLACEMENT_3D('',#1375,#1376,#1377);
#1375 = CARTESIAN_POINT('',(177.68238567811,97.739422,60.));
#1376 = DIRECTION('',(1.,0.,0.));
#1377 = DIRECTION('',(0.,1.,0.));
#1378 = ADVANCED_FACE('',(#1379),#1398,.F.);
#1379 = FACE_BOUND('',#1380,.F.);
#1380 = EDGE_LOOP('',(#1381,#1389,#1396,#1397));
#1381 = ORIENTED_EDGE('',*,*,#1382,.T.);
#1382 = EDGE_CURVE('',#954,#1383,#1385,.T.);
#1383 = VERTEX_POINT('',#1384);
#1384 = CARTESIAN_POINT('',(179.53238567811,98.739422,56.));
#1385 = LINE('',#1386,#1387);
#1386 = CARTESIAN_POINT('',(179.53238567811,102.739422,56.));
#1387 = VECTOR('',#1388,1.);
#1388 = DIRECTION('',(0.,-1.,2.2E-16));
#1389 = ORIENTED_EDGE('',*,*,#1390,.T.);
#1390 = EDGE_CURVE('',#1383,#1383,#1391,.T.);
#1391 = CIRCLE('',#1392,2.35);
#1392 = AXIS2_PLACEMENT_3D('',#1393,#1394,#1395);
#1393 = CARTESIAN_POINT('',(181.88238567811,98.739422,56.));
#1394 = DIRECTION('',(0.,1.,-0.));
#1395 = DIRECTION('',(-1.,0.,0.));
#1396 = ORIENTED_EDGE('',*,*,#1382,.F.);
#1397 = ORIENTED_EDGE('',*,*,#953,.F.);
#1398 = CYLINDRICAL_SURFACE('',#1399,2.35);
#1399 = AXIS2_PLACEMENT_3D('',#1400,#1401,#1402);
#1400 = CARTESIAN_POINT('',(181.88238567811,102.739422,56.));
#1401 = DIRECTION('',(0.,1.,-2.2E-16));
#1402 = DIRECTION('',(-1.,0.,0.));
#1403 = ADVANCED_FACE('',(#1404,#1410),#1421,.F.);
#1404 = FACE_BOUND('',#1405,.T.);
#1405 = EDGE_LOOP('',(#1406,#1407,#1408,#1409));
#1406 = ORIENTED_EDGE('',*,*,#1043,.T.);
#1407 = ORIENTED_EDGE('',*,*,#1067,.T.);
#1408 = ORIENTED_EDGE('',*,*,#1026,.T.);
#1409 = ORIENTED_EDGE('',*,*,#995,.T.);
#1410 = FACE_BOUND('',#1411,.F.);
#1411 = EDGE_LOOP('',(#1412));
#1412 = ORIENTED_EDGE('',*,*,#1413,.T.);
#1413 = EDGE_CURVE('',#1414,#1414,#1416,.T.);
#1414 = VERTEX_POINT('',#1415);
#1415 = CARTESIAN_POINT('',(156.78529179301,8.901531185515,56.));
#1416 = CIRCLE('',#1417,2.35);
#1417 = AXIS2_PLACEMENT_3D('',#1418,#1419,#1420);
#1418 = CARTESIAN_POINT('',(154.43529179301,8.901531185515,56.));
#1419 = DIRECTION('',(0.,0.,-1.));
#1420 = DIRECTION('',(1.,0.,0.));
#1421 = PLANE('',#1422);
#1422 = AXIS2_PLACEMENT_3D('',#1423,#1424,#1425);
#1423 = CARTESIAN_POINT('',(154.43529179301,8.901531185515,56.));
#1424 = DIRECTION('',(0.,0.,1.));
#1425 = DIRECTION('',(1.,0.,0.));
#1426 = ADVANCED_FACE('',(#1427),#1430,.F.);
#1427 = FACE_BOUND('',#1428,.T.);
#1428 = EDGE_LOOP('',(#1429));
#1429 = ORIENTED_EDGE('',*,*,#1144,.T.);
#1430 = PLANE('',#1431);
#1431 = AXIS2_PLACEMENT_3D('',#1432,#1433,#1434);
#1432 = CARTESIAN_POINT('',(132.88238567811,-3.860578,56.));
#1433 = DIRECTION('',(0.,1.,-4.4E-16));
#1434 = DIRECTION('',(0.,4.4E-16,1.));
#1435 = ADVANCED_FACE('',(#1436),#1439,.F.);
#1436 = FACE_BOUND('',#1437,.T.);
#1437 = EDGE_LOOP('',(#1438));
#1438 = ORIENTED_EDGE('',*,*,#1222,.T.);
#1439 = PLANE('',#1440);
#1440 = AXIS2_PLACEMENT_3D('',#1441,#1442,#1443);
#1441 = CARTESIAN_POINT('',(132.88238567811,-3.860578,56.));
#1442 = DIRECTION('',(0.,1.,-4.4E-16));
#1443 = DIRECTION('',(0.,4.4E-16,1.));
#1444 = ADVANCED_FACE('',(#1445),#1448,.T.);
#1445 = FACE_BOUND('',#1446,.T.);
#1446 = EDGE_LOOP('',(#1447));
#1447 = ORIENTED_EDGE('',*,*,#1300,.T.);
#1448 = PLANE('',#1449);
#1449 = AXIS2_PLACEMENT_3D('',#1450,#1451,#1452);
#1450 = CARTESIAN_POINT('',(132.88238567811,98.739422,56.));
#1451 = DIRECTION('',(0.,1.,0.));
#1452 = DIRECTION('',(0.,0.,1.));
#1453 = ADVANCED_FACE('',(#1454),#1457,.T.);
#1454 = FACE_BOUND('',#1455,.T.);
#1455 = EDGE_LOOP('',(#1456));
#1456 = ORIENTED_EDGE('',*,*,#1390,.T.);
#1457 = PLANE('',#1458);
#1458 = AXIS2_PLACEMENT_3D('',#1459,#1460,#1461);
#1459 = CARTESIAN_POINT('',(132.88238567811,98.739422,56.));
#1460 = DIRECTION('',(0.,1.,0.));
#1461 = DIRECTION('',(0.,0.,1.));
#1462 = ADVANCED_FACE('',(#1463),#1482,.F.);
#1463 = FACE_BOUND('',#1464,.T.);
#1464 = EDGE_LOOP('',(#1465,#1473,#1474,#1475));
#1465 = ORIENTED_EDGE('',*,*,#1466,.T.);
#1466 = EDGE_CURVE('',#1467,#1414,#1469,.T.);
#1467 = VERTEX_POINT('',#1468);
#1468 = CARTESIAN_POINT('',(156.78529179301,8.901531185515,60.));
#1469 = LINE('',#1470,#1471);
#1470 = CARTESIAN_POINT('',(156.78529179301,8.901531185515,60.));
#1471 = VECTOR('',#1472,1.);
#1472 = DIRECTION('',(0.,0.,-1.));
#1473 = ORIENTED_EDGE('',*,*,#1413,.T.);
#1474 = ORIENTED_EDGE('',*,*,#1466,.F.);
#1475 = ORIENTED_EDGE('',*,*,#1476,.F.);
#1476 = EDGE_CURVE('',#1467,#1467,#1477,.T.);
#1477 = CIRCLE('',#1478,2.35);
#1478 = AXIS2_PLACEMENT_3D('',#1479,#1480,#1481);
#1479 = CARTESIAN_POINT('',(154.43529179301,8.901531185515,60.));
#1480 = DIRECTION('',(0.,0.,-1.));
#1481 = DIRECTION('',(1.,0.,0.));
#1482 = CYLINDRICAL_SURFACE('',#1483,2.35);
#1483 = AXIS2_PLACEMENT_3D('',#1484,#1485,#1486);
#1484 = CARTESIAN_POINT('',(154.43529179301,8.901531185515,60.));
#1485 = DIRECTION('',(0.,0.,1.));
#1486 = DIRECTION('',(1.,0.,0.));
#1487 = ADVANCED_FACE('',(#1488),#1491,.F.);
#1488 = FACE_BOUND('',#1489,.F.);
#1489 = EDGE_LOOP('',(#1490));
#1490 = ORIENTED_EDGE('',*,*,#1476,.F.);
#1491 = PLANE('',#1492);
#1492 = AXIS2_PLACEMENT_3D('',#1493,#1494,#1495);
#1493 = CARTESIAN_POINT('',(132.88238567811,47.939422,60.));
#1494 = DIRECTION('',(0.,0.,1.));
#1495 = DIRECTION('',(1.,0.,0.));
#1496 = ( GEOMETRIC_REPRESENTATION_CONTEXT(3) 
GLOBAL_UNCERTAINTY_ASSIGNED_CONTEXT((#1500)) 
GLOBAL_UNIT_ASSIGNED_CONTEXT((#1497,#1498,#1499)) REPRESENTATION_CONTEXT
('Context #1','3D Context with UNIT and UNCERTAINTY') );
#1497 = ( LENGTH_UNIT() NAMED_UNIT(*) SI_UNIT(.MILLI.,.METRE.) );
#1498 = ( NAMED_UNIT(*) PLANE_ANGLE_UNIT() SI_UNIT($,.RADIAN.) );
#1499 = ( NAMED_UNIT(*) SI_UNIT($,.STERADIAN.) SOLID_ANGLE_UNIT() );
#1500 = UNCERTAINTY_MEASURE_WITH_UNIT(LENGTH_MEASURE(1.E-07),#1497,
  'distance_accuracy_value','confusion accuracy');
#1501 = PRODUCT_RELATED_PRODUCT_CATEGORY('part',$,(#7));
#1502 = MECHANICAL_DESIGN_GEOMETRIC_PRESENTATION_REPRESENTATION('',(
    #1503),#1496);
#1503 = STYLED_ITEM('color',(#1504),#15);
#1504 = PRESENTATION_STYLE_ASSIGNMENT((#1505,#1511));
#1505 = SURFACE_STYLE_USAGE(.BOTH.,#1506);
#1506 = SURFACE_SIDE_STYLE('',(#1507));
#1507 = SURFACE_STYLE_FILL_AREA(#1508);
#1508 = FILL_AREA_STYLE('',(#1509));
#1509 = FILL_AREA_STYLE_COLOUR('',#1510);
#1510 = COLOUR_RGB('',0.800000010877,0.800000010877,0.901960800373);
#1511 = CURVE_STYLE('',#1512,POSITIVE_LENGTH_MEASURE(0.1),#1513);
#1512 = DRAUGHTING_PRE_DEFINED_CURVE_FONT('continuous');
#1513 = COLOUR_RGB('',9.803921802644E-02,9.803921802644E-02,
  9.803921802644E-02);
ENDSEC;
END-ISO-10303-21;
